<?xml version="1.0" encoding="UTF-8"?>
<svg version="1.1" xmlns="http://www.w3.org/2000/svg" width="128" height="128">
<path d="M0 0 C0.89162842 0.37125 0.89162842 0.37125 1.80126953 0.75 C19.98742322 8.48459847 30.65878444 20.14562913 38.95703125 38.1015625 C43.77060527 51.47861091 44.66432909 69.81512587 39 83 C38.62875 83.89162842 38.62875 83.89162842 38.25 84.80126953 C30.51540153 102.98742322 18.85437087 113.65878444 0.8984375 121.95703125 C-12.47861091 126.77060527 -30.81512587 127.66432909 -44 122 C-44.59441895 121.7525 -45.18883789 121.505 -45.80126953 121.25 C-63.98742322 113.51540153 -74.65878444 101.85437087 -82.95703125 83.8984375 C-87.77060527 70.52138909 -88.66432909 52.18487413 -83 39 C-82.7525 38.40558105 -82.505 37.81116211 -82.25 37.19873047 C-74.51540153 19.01257678 -62.85437087 8.34121556 -44.8984375 0.04296875 C-31.52138909 -4.77060527 -13.18487413 -5.66432909 0 0 Z " fill="#F3CB25" transform="translate(86,3)"/>
<path d="M0 0 C0.495 1.485 0.495 1.485 1 3 C1.99 3.0928125 1.99 3.0928125 3 3.1875 C6.4526354 4.12258875 8.8592736 5.59592322 11.8203125 7.5625 C13.2841181 8.52787717 14.78097375 9.44475793 16.3046875 10.3125 C24.31749529 15.06083054 28.62361833 22.04860715 31 31 C32.68781126 45.24899049 30.94304808 57.71054715 21.9375 69.3125 C19 72 19 72 16.375 72.5 C13.92251311 72.73830128 13.92251311 72.73830128 12.87109375 74.5625 C11.88834434 76.36118526 10.94254025 78.17992227 10 80 C6.93390816 81.53304592 3.88086673 80.91335742 0.5078125 80.7421875 C-2.52905543 81.05438888 -3.6020494 82.19217005 -6 84 C-8.5078125 84.328125 -8.5078125 84.328125 -11.125 84.25 C-11.99382813 84.23453125 -12.86265625 84.2190625 -13.7578125 84.203125 C-16 84 -16 84 -18 83 C-18 82.34 -18 81.68 -18 81 C-18.90363281 81.04640625 -19.80726562 81.0928125 -20.73828125 81.140625 C-21.91777344 81.17671875 -23.09726562 81.2128125 -24.3125 81.25 C-25.48425781 81.29640625 -26.65601563 81.3428125 -27.86328125 81.390625 C-31 81 -31 81 -32.8671875 79.1171875 C-34 77 -34 77 -34.8125 74.875 C-35.89732108 72.69597676 -35.89732108 72.69597676 -38.75 72.25 C-43.55442798 70.40214309 -45.35146891 67.28167359 -48 63 C-48.49113281 62.27425781 -48.98226562 61.54851562 -49.48828125 60.80078125 C-53.1708648 54.35885341 -53.49139577 48.13124667 -53.5625 40.875 C-53.57716309 39.94478027 -53.59182617 39.01456055 -53.60693359 38.05615234 C-53.47660302 29.2078059 -50.47417117 21.96712695 -45 15 C-43.36504293 13.94895617 -41.70116376 12.94011682 -40 12 C-39.34 11.01 -38.68 10.02 -38 9 C-36.125 7.83203125 -36.125 7.83203125 -34 6.8125 C-33.29875 6.46832031 -32.5975 6.12414063 -31.875 5.76953125 C-30 5 -30 5 -28 5 C-27.67 3.68 -27.34 2.36 -27 1 C-8.79157613 -4.17599866 -8.79157613 -4.17599866 0 0 Z " fill="#F78F1D" transform="translate(75,23)"/>
<path d="M0 0 C0.89162842 0.37125 0.89162842 0.37125 1.80126953 0.75 C19.98742322 8.48459847 30.65878444 20.14562913 38.95703125 38.1015625 C43.77060527 51.47861091 44.66432909 69.81512587 39 83 C38.62875 83.89162842 38.62875 83.89162842 38.25 84.80126953 C30.51540153 102.98742322 18.85437087 113.65878444 0.8984375 121.95703125 C-12.47861091 126.77060527 -30.81512587 127.66432909 -44 122 C-44.59441895 121.7525 -45.18883789 121.505 -45.80126953 121.25 C-63.98742322 113.51540153 -74.65878444 101.85437087 -82.95703125 83.8984375 C-87.77060527 70.52138909 -88.66432909 52.18487413 -83 39 C-82.7525 38.40558105 -82.505 37.81116211 -82.25 37.19873047 C-74.51540153 19.01257678 -62.85437087 8.34121556 -44.8984375 0.04296875 C-31.52138909 -4.77060527 -13.18487413 -5.66432909 0 0 Z M-67.8125 22 C-78.92043314 35.47519757 -82.89854345 50.75487757 -82 68 C-79.94723331 84.21685686 -70.73878287 99.12781718 -58.1875 109.2734375 C-45.3268469 118.47427709 -30.70921319 122.34286015 -15 121 C1.32225179 118.25759737 16.00007848 110.56228 26.09765625 97.23046875 C35.67300966 82.69463501 40.08953108 67.26104965 37.53125 49.80078125 C34.2860348 35.02346202 25.598173 20.64657215 13 12 C-14.56106355 -4.40837438 -45.49675961 -2.52807672 -67.8125 22 Z " fill="#040300" transform="translate(86,3)"/>
<path d="M0 0 C1.32 0.33 2.64 0.66 4 1 C4.00410889 1.57443848 4.00821777 2.14887695 4.01245117 2.74072266 C4.04555997 5.36982647 4.11621693 7.99666529 4.1875 10.625 C4.19330078 11.52863281 4.19910156 12.43226562 4.20507812 13.36328125 C4.23408203 14.24628906 4.26308594 15.12929688 4.29296875 16.0390625 C4.3086792 16.84553223 4.32438965 17.65200195 4.34057617 18.48291016 C4.86099652 21.28046945 4.86099652 21.28046945 7.52734375 23.71289062 C11.02910816 27.65286995 10.5470774 31.5145385 10.26953125 36.5546875 C10.22562508 37.90700974 10.22562508 37.90700974 10.18083191 39.28665161 C10.08228556 42.15093918 9.94793966 45.01224346 9.8125 47.875 C9.73916502 49.82282883 9.66817566 51.77074748 9.59960938 53.71875 C9.42688685 58.48063521 9.22205779 63.24017063 9 68 C10.98 67.01 10.98 67.01 13 66 C12.94352295 64.84999512 12.8870459 63.69999023 12.82885742 62.51513672 C12.62552321 58.23331057 12.45670907 53.95068881 12.2980957 49.66699219 C12.22477512 47.8160117 12.14219569 45.96537319 12.05004883 44.11523438 C11.91891617 41.44958686 11.82155295 38.7844676 11.73046875 36.1171875 C11.68278854 35.29507782 11.63510834 34.47296814 11.58598328 33.62594604 C11.42632964 27.51827813 12.90585497 25.43901505 17 21 C17.75421939 18.52241422 17.75421939 18.52241422 17.70703125 16.0390625 C17.73603516 15.15605469 17.76503906 14.27304687 17.79492188 13.36328125 C17.80072266 12.45964844 17.80652344 11.55601563 17.8125 10.625 C17.83763672 9.69816406 17.86277344 8.77132812 17.88867188 7.81640625 C17.94724308 5.54384359 17.98374013 3.27319322 18 1 C19.9375 0.4375 19.9375 0.4375 22 0 C24.36750842 2.36750842 23.32862595 8.07548579 23.375 11.25 C23.43107422 12.68279297 23.43107422 12.68279297 23.48828125 14.14453125 C23.49988281 15.07136719 23.51148438 15.99820313 23.5234375 16.953125 C23.5531665 18.22397949 23.5531665 18.22397949 23.58349609 19.52050781 C23 22 23 22 20.48901367 24.2331543 C16.93654627 28.18216 17.42354703 31.19537867 17.65234375 36.31640625 C17.66890518 37.20988266 17.68546661 38.10335907 17.70252991 39.02391052 C17.75686913 41.87127009 17.84389793 44.71617887 17.9375 47.5625 C18.02575161 50.41228144 18.10630972 53.26118326 18.16175842 56.11180115 C18.19652341 57.88301665 18.25020668 59.65398566 18.32493591 61.42396545 C18.4463832 67.36617846 18.4463832 67.36617846 16.20922852 70.54272461 C12.98661133 72.66846248 10.76633699 72.54783083 7 72 C5.00143036 70.07034656 4.1729367 68.45229598 3.1875 65.875 C2.10267892 63.69597676 2.10267892 63.69597676 -0.75 63.25 C-5.55442798 61.40214309 -7.35146891 58.28167359 -10 54 C-10.49113281 53.27425781 -10.98226563 52.54851562 -11.48828125 51.80078125 C-15.1708648 45.35885341 -15.49139577 39.13124667 -15.5625 31.875 C-15.57716309 30.94478027 -15.59182617 30.01456055 -15.60693359 29.05615234 C-15.47660302 20.2078059 -12.47417117 12.96712695 -7 6 C-5.36504293 4.94895617 -3.70116376 3.94011682 -2 3 C-1.34 2.01 -0.68 1.02 0 0 Z " fill="#F9901D" transform="translate(37,32)"/>
<path d="M0 0 C3.77257229 1.29114774 5.0665942 3.42998117 7.19140625 6.75 C8.38523552 10.33148781 8.43343986 13.34948526 8.50390625 17.125 C8.54128906 18.43210937 8.57867187 19.73921875 8.6171875 21.0859375 C8.19140625 24.75 8.19140625 24.75 6.18041992 26.93774414 C3.42124767 30.83892313 3.7467579 33.76083046 3.94140625 38.41015625 C3.95655273 39.23704453 3.97169922 40.0639328 3.98730469 40.9158783 C4.03602582 43.54894791 4.11052455 46.18023391 4.19140625 48.8125 C4.29781512 52.28250599 4.37775229 55.75163213 4.44140625 59.22265625 C4.47459961 60.01752945 4.50779297 60.81240265 4.54199219 61.63136292 C4.60550873 65.20956662 4.51370254 67.30030363 2.3984375 70.25170898 C-0.8154756 72.43354357 -3.02173022 72.30081651 -6.80859375 71.75 C-9.66290273 69.24221271 -9.81109911 67.71507279 -10.08569336 63.88696289 C-10.05824695 62.33188016 -10.01575366 60.77701489 -9.9609375 59.22265625 C-9.93274129 57.52669605 -9.9047529 55.83073237 -9.87695312 54.13476562 C-9.81478943 51.47057238 -9.7459321 48.80670438 -9.67163086 46.14282227 C-9.60514949 43.5652989 -9.5632665 40.98820869 -9.5234375 38.41015625 C-9.47835304 37.2208828 -9.47835304 37.2208828 -9.43235779 36.00758362 C-9.36342997 30.84759092 -10.19983812 28.65984997 -13.80859375 24.75 C-14.3046875 21.19140625 -14.3046875 21.19140625 -14.24609375 17.3125 C-14.24480469 16.03503906 -14.24351563 14.75757813 -14.2421875 13.44140625 C-13.67184878 8.58581982 -11.85949302 5.32634891 -9.18359375 1.3125 C-5.9492717 -0.81534345 -3.75489396 -0.59385473 0 0 Z " fill="#0D0701" transform="translate(82.80859375,32.25)"/>
<path d="M0 0 C2.0625 0.4375 2.0625 0.4375 4 1 C4.00410889 1.57443848 4.00821777 2.14887695 4.01245117 2.74072266 C4.04555997 5.36982647 4.11621693 7.99666529 4.1875 10.625 C4.19620117 11.98044922 4.19620117 11.98044922 4.20507812 13.36328125 C4.24858398 14.68779297 4.24858398 14.68779297 4.29296875 16.0390625 C4.3086792 16.84553223 4.32438965 17.65200195 4.34057617 18.48291016 C4.86099652 21.28046945 4.86099652 21.28046945 7.52734375 23.71289062 C11.02910816 27.65286995 10.5470774 31.5145385 10.26953125 36.5546875 C10.24026047 37.45623566 10.21098969 38.35778381 10.18083191 39.28665161 C10.08228556 42.15093918 9.94793966 45.01224346 9.8125 47.875 C9.73916502 49.82282883 9.66817566 51.77074748 9.59960938 53.71875 C9.42688685 58.48063521 9.22205779 63.24017063 9 68 C10.98 67.01 10.98 67.01 13 66 C12.94352295 64.84999512 12.8870459 63.69999023 12.82885742 62.51513672 C12.62552321 58.23331057 12.45670907 53.95068881 12.2980957 49.66699219 C12.22477512 47.8160117 12.14219569 45.96537319 12.05004883 44.11523438 C11.91891617 41.44958686 11.82155295 38.7844676 11.73046875 36.1171875 C11.68278854 35.29507782 11.63510834 34.47296814 11.58598328 33.62594604 C11.42632964 27.51827813 12.90585497 25.43901505 17 21 C17.75421939 18.52241422 17.75421939 18.52241422 17.70703125 16.0390625 C17.75053711 14.71455078 17.75053711 14.71455078 17.79492188 13.36328125 C17.80072266 12.45964844 17.80652344 11.55601563 17.8125 10.625 C17.83763672 9.69816406 17.86277344 8.77132812 17.88867188 7.81640625 C17.94724308 5.54384359 17.98374013 3.27319322 18 1 C19.9375 0.4375 19.9375 0.4375 22 0 C24.36750842 2.36750842 23.32862595 8.07548579 23.375 11.25 C23.41238281 12.20519531 23.44976562 13.16039062 23.48828125 14.14453125 C23.49988281 15.07136719 23.51148437 15.99820313 23.5234375 16.953125 C23.54325684 17.80036133 23.56307617 18.64759766 23.58349609 19.52050781 C23 22 23 22 20.48901367 24.2331543 C16.93654627 28.18216 17.42354703 31.19537867 17.65234375 36.31640625 C17.66890518 37.20988266 17.68546661 38.10335907 17.70252991 39.02391052 C17.75686913 41.87127009 17.84389793 44.71617887 17.9375 47.5625 C18.02575161 50.41228144 18.10630972 53.26118326 18.16175842 56.11180115 C18.19652341 57.88301665 18.25020668 59.65398566 18.32493591 61.42396545 C18.4463832 67.36617846 18.4463832 67.36617846 16.20922852 70.54272461 C12.98661133 72.66846248 10.76633699 72.54783083 7 72 C4.92731013 70.23107151 4.0930431 68.80751157 3.77960205 66.08718872 C3.73500817 63.65655578 3.79481227 61.24585235 3.8828125 58.81640625 C3.91587835 56.98373316 3.9484141 55.15105043 3.98046875 53.31835938 C4.0487921 50.43673616 4.12520653 47.55567585 4.21240234 44.67456055 C4.29099015 41.88850361 4.33855416 39.10318959 4.3828125 36.31640625 C4.43563889 35.02870079 4.43563889 35.02870079 4.48953247 33.71498108 C4.56507083 28.46486252 4.56507083 28.46486252 1.50878906 24.2331543 C0.68088867 23.49621338 -0.14701172 22.75927246 -1 22 C-1.58349609 19.52050781 -1.58349609 19.52050781 -1.5234375 16.953125 C-1.51183594 16.02628906 -1.50023437 15.09945312 -1.48828125 14.14453125 C-1.45089844 13.18933594 -1.41351563 12.23414063 -1.375 11.25 C-1.36082031 10.27933594 -1.34664062 9.30867188 -1.33203125 8.30859375 C-1.18253348 1.18253348 -1.18253348 1.18253348 0 0 Z " fill="#190E02" transform="translate(37,32)"/>
<path d="M0 0 C2.82302844 0.21715603 4.51085783 0.61567401 6.75 2.375 C9.27219426 5.65385254 9.19092993 8.95519252 9.25 12.9375 C9.28867188 14.49791016 9.28867188 14.49791016 9.328125 16.08984375 C8.96207432 19.33636464 8.28358409 20.69978787 6 23 C5.34 23 4.68 23 4 23 C4.33 36.2 4.66 49.4 5 63 C2.525 63.495 2.525 63.495 0 64 C-1 63 -1 63 -1.02172852 59.21459961 C-0.97937639 57.52704091 -0.93135063 55.83961897 -0.87890625 54.15234375 C-0.85529526 53.2659169 -0.83168427 52.37949005 -0.80735779 51.46620178 C-0.73052437 48.62314613 -0.64658529 45.78034954 -0.5625 42.9375 C-0.50929899 41.01498681 -0.45655848 39.09246083 -0.40429688 37.16992188 C-0.27488275 32.44644922 -0.13909382 27.72319712 0 23 C-0.639375 22.71125 -1.27875 22.4225 -1.9375 22.125 C-4 21 -4 21 -5 19 C-5.14851844 17.06640414 -5.22130833 15.12657903 -5.25 13.1875 C-5.27578125 12.14980469 -5.3015625 11.11210938 -5.328125 10.04296875 C-4.85448969 5.65056508 -3.07878057 3.07878057 0 0 Z " fill="#F08A1C" transform="translate(78,36)"/>
<path d="M0 0 C3.75472713 1.4628807 5.1287214 3.30093225 7.125 6.75 C7.62257813 7.59046875 8.12015625 8.4309375 8.6328125 9.296875 C13.48423816 18.88883659 14.12966412 31.88158339 10.8671875 42.17578125 C8.20920514 48.6537435 5.1366135 54.2058274 0 59 C-0.99 59 -1.98 59 -3 59 C-2.5328436 53.97806867 -1.13087729 51.84650639 2 48 C3.46767191 45.05439275 4.73002353 42.0348264 6 39 C6.33 38.34 6.66 37.68 7 37 C7.73032627 24.97770607 7.19097641 14.73987844 -0.109375 4.69140625 C-0.55023438 3.85416016 -0.55023438 3.85416016 -1 3 C-0.67 2.01 -0.34 1.02 0 0 Z " fill="#0F0A02" transform="translate(94,36)"/>
<path d="M0 0 C0.99 0 1.98 0 3 0 C2.53702564 4.62974357 1.16270587 7.97219423 -1.0625 11.97265625 C-4.4810373 19.36524317 -4.19365083 29.68601711 -2.05859375 37.40234375 C0.27941711 43.21438955 3.27674946 48.00020641 7 53 C7 53.99 7 54.98 7 56 C4.01741104 55.67701236 2.44140889 55.4652969 0.33984375 53.25 C-0.12292969 52.5075 -0.58570313 51.765 -1.0625 51 C-1.52785156 50.278125 -1.99320313 49.55625 -2.47265625 48.8125 C-3.22869141 47.4203125 -3.22869141 47.4203125 -4 46 C-4.52279541 45.04287109 -4.52279541 45.04287109 -5.05615234 44.06640625 C-8.09897405 37.9834736 -8.61171529 32.74015579 -8.5 26 C-8.51546875 25.06671875 -8.5309375 24.1334375 -8.546875 23.171875 C-8.49739112 14.31426065 -5.49990866 6.91923993 0 0 Z " fill="#110C02" transform="translate(30,38)"/>
<path d="M0 0 C0 0.99 0 1.98 0 3 C-0.56920166 3.02505615 -1.13840332 3.0501123 -1.72485352 3.07592773 C-4.33757313 3.19293894 -6.95002362 3.3151828 -9.5625 3.4375 C-10.45775391 3.47681641 -11.35300781 3.51613281 -12.27539062 3.55664062 C-17.2458219 3.79332783 -22.08823519 4.19821672 -27 5 C-27 3.68 -27 2.36 -27 1 C-17.5967969 -1.67299174 -9.34745878 -3.83485488 0 0 Z " fill="#151003" transform="translate(75,23)"/>
<path d="M0 0 C0.99 0 1.98 0 3 0 C3 6.93 3 13.86 3 21 C1.68 20.67 0.36 20.34 -1 20 C-1.02888514 16.85418577 -1.04675923 13.70840531 -1.0625 10.5625 C-1.07087891 9.66466797 -1.07925781 8.76683594 -1.08789062 7.84179688 C-1.09111328 6.98779297 -1.09433594 6.13378906 -1.09765625 5.25390625 C-1.10551147 4.06776733 -1.10551147 4.06776733 -1.11352539 2.85766602 C-1 1 -1 1 0 0 Z " fill="#080501" transform="translate(50,32)"/>
<path d="M0 0 C0.99 0.33 1.98 0.66 3 1 C3 7.27 3 13.54 3 20 C1.68 20.33 0.36 20.66 -1 21 C-1.02888146 17.68751813 -1.04675799 14.37506833 -1.0625 11.0625 C-1.07087891 10.11697266 -1.07925781 9.17144531 -1.08789062 8.19726562 C-1.09111328 7.29814453 -1.09433594 6.39902344 -1.09765625 5.47265625 C-1.10289307 4.64000244 -1.10812988 3.80734863 -1.11352539 2.94946289 C-1 1 -1 1 0 0 Z " fill="#070400" transform="translate(44,32)"/>
<path d="M0 0 C3.96 0 7.92 0 12 0 C12 1.32 12 2.64 12 4 C11 5 11 5 8.78515625 5.1328125 C7.88667969 5.13023438 6.98820312 5.12765625 6.0625 5.125 C5.16660156 5.12757812 4.27070312 5.13015625 3.34765625 5.1328125 C1 5 1 5 -1 4 C-0.67 2.68 -0.34 1.36 0 0 Z " fill="#281D05" transform="translate(58,102)"/>
</svg>
